PathFileType	4	(X/Y/Z)	C:/Users/beibeiliu/ov580/test_trc/capture2\sequence.12_training_dense_right.trc
DataRate	CameraRate	NumFrames	NumMarkers	Units	OrigDataRate	OrigDataStartFrame	OrigNumFrames
120	120	18	19	mm	120	185	369
Frame#	Time	ThumbCMC			ThumbMCP			ThumbIP			ThumbTip			IndexMCP			IndexPIP			IndexTip			MiddleMCP			MiddlePIP			MiddleTip			RingMCP			RingPIP			RingTip			PinkyMCP			PinkyPIP			PinkyTip			BackHand1			BackHand2			BackHand3	
		X0	Y0	Z0	X1	Y1	Z1	X2	Y2	Z2	X3	Y3	Z3	X4	Y4	Z4	X5	Y5	Z5	X6	Y6	Z6	X7	Y7	Z7	X8	Y8	Z8	X9	Y9	Z9	X10	Y10	Z10	X11	Y11	Z11	X12	Y12	Z12	X13	Y13	Z13	X14	Y14	Z14	X15	Y15	Z15	X16	Y16	Z16	X17	Y17	Z17	X18	Y18	Z18	
184	1.53333	106.678	52.9152	20.487	103.96	46.3581	-10.7793	99.7925	48.9543	-38.2908	108.406	53.604	-59.2503	123.974	95.8965	-28.4301	122.885	79.6855	-55.7381	127.488	52.3528	-62.7823	158.058	106.353	-22.679	163.182	111.993	-46.4341	165.839	118.909	-79.2103	176.598	96.8129	-15.6045	184.66	109.129	-39.304	194.335	116.369	-63.977	192.824	76.7746	-8.8961	210.949	82.0665	-24.3277	226.76	92.2632	-36.7691	165.547	74.4364	28.3306	160.972	58.9845	51.8858	134.477	74.1435	39.0219	
185	1.54167	108.495	52.3035	23.9001	100.386	45.845	-7.89106	101.505	52.0051	-34.499	106.645	57.8372	-58.9368	124.324	99.9069	-26.4533	121.576	88.0965	-51.305	126.772	54.6897	-62.0447	154.359	112.63	-20.2908	162.068	118.761	-46.3163	164.17	123.892	-72.075	178.374	102.723	-15.4094	187.264	110.723	-32.716	191.017	123.608	-58.3065	191.773	80.2338	-6.6769	209.033	88.9574	-23.876	225.589	96.4103	-34.5137	166.359	77.5114	28.4532	162.952	54.4765	54.6524	133.731	74.4133	43.1486	
186	1.55	108.083	53.3194	25.9048	100.664	49.6249	-8.22569	100.97	57.3944	-35.587	103.717	62.7204	-58.08	123.476	104.2	-18.9861	119.565	91.8198	-48.6605	123.855	63.3997	-60.3432	154.385	113.922	-13.6532	158.768	124.153	-37.9557	163.523	132.255	-70.2629	179.518	105.224	-10.8825	186.688	115.285	-30.5142	190.78	128.936	-53.4563	197.233	82.861	-5.25107	205.829	93.4542	-21.9638	222.565	104.247	-31.5261	166.137	76.3783	32.1035	165.258	56.6544	55.1694	135.467	79.3902	42.2988	
187	1.55833	108.693	54.2688	27.6656	103.936	53.2089	-7.37441	97.9509	57.5454	-32.9535	100.367	65.1273	-56.5505	127.626	108.112	-15.3981	118.405	96.8133	-47.4119	124.171	71.1305	-60.0989	156.116	115.799	-10.8113	158.125	129.422	-38.9961	163.988	136.32	-66.4831	177.802	108.938	-7.93607	183.628	120.19	-25.9352	191.792	135.563	-50.6651	197.909	85.9976	-4.95202	210.583	95.1683	-20.1282	226.459	109.004	-29.6526	170.792	76.3869	34.9148	165.579	58.4293	54.1187	136.606	78.7126	44.0819	
188	1.56667	110.146	55.2433	28.727	99.6468	52.6519	-5.24529	98.2896	62.7726	-33.1084	99.2714	68.8231	-55.0262	124.66	111.303	-13.8907	120.818	99.7226	-43.3842	123.229	75.4553	-57.7788	155.684	120.988	-8.77299	162.51	129.338	-31.4999	163.752	140.934	-63.2026	175.77	109.88	-4.37009	186.012	122.687	-22.8668	193.343	138.087	-45.9364	192.431	88.1612	-2.56334	207.056	99.9792	-17.9203	224.465	113.939	-27.281	169.927	74.4686	35.793	165.367	59.1182	54.6071	140.737	75.2158	49.4521	
189	1.575	106.203	58.0822	26.5956	99.9459	57.011	-7.05252	95.6666	65.2918	-34.9058	101.285	72.855	-54.9541	123.984	111.45	-8.70251	116.538	102.644	-40.9094	117.711	79.3843	-55.5191	154.908	122.608	-5.85846	156.781	136.54	-32.0647	159.724	145.334	-56.3614	176.291	113.964	-3.91389	182.604	127.528	-21.5337	192.414	139.631	-42.7855	193.721	86.1775	-0.40318	205.272	103.149	-17.2601	221.313	113.771	-25.5802	170.966	76.6308	36.7724	164.589	56.9058	56.1753	136.409	76.7776	48.9794	
190	1.58333	107.135	55.3685	30.4414	100.516	57.5682	-5.59057	95.4131	64.3226	-30.6451	100.183	75.4201	-54.8501	121.262	113.664	-8.12511	116.086	105.882	-37.6225	118.111	80.3311	-55.4927	154.279	121.041	-1.32865	158.877	136.908	-29.5458	161.367	147.548	-56.446	175.169	115.286	-2.36488	181.943	128.764	-18.8863	189.876	146.096	-41.8069	188.866	90.2513	1.23495	203.919	103.96	-13.7878	220.701	116.02	-23.7235	170.863	78.2885	35.063	164.594	54.4533	57.3375	135.067	77.3286	50.6058	
191	1.59167	108.908	59.2115	28.2067	102.2	55.7228	-1.3278	93.7463	67.0391	-31.9714	95.8543	73.7542	-50.5673	123.666	114.404	-9.69862	116.789	107.349	-35.6918	116.272	85.8336	-53.2547	155.953	124.765	-3.12501	158.66	137.211	-24.4047	158.27	149.687	-52.0113	175.837	111.982	2.38073	180.379	130.139	-16.5725	185.027	147.132	-37.649	193.213	90.7	2.1307	206.213	103.053	-12.582	218.573	121.859	-23.3421	167.185	79.5805	39.1308	163.107	55.3055	56.7471	139.167	77.8307	48.6157	
192	1.6	107.121	58.9871	30.641	97.2269	56.7245	-2.6274	96.2562	69.0269	-27.9224	95.3593	75.6545	-48.6867	118.952	114.595	-4.4929	118.09	109.823	-32.0695	116.416	84.5383	-53.9214	155.195	124.827	0.0601851	155.169	139.471	-23.6922	155.7	152.844	-49.1535	173.436	116.844	2.16342	182.375	130.033	-14.2356	182.602	150.703	-36.3098	189.299	95.1461	1.96113	204.421	106.603	-11.7636	219.975	118.914	-20.7794	167.859	78.1186	38.1058	163.516	58.4585	55.8282	136.487	75.255	54.2826	
193	1.60833	109.365	56.4093	34.0553	98.9614	60.3663	-2.9244	93.7207	66.1309	-23.9023	94.7554	77.9491	-47.2694	120.86	115.084	-0.245155	114.576	111.515	-30.0323	112.46	87.9683	-52.3886	151.805	126.023	1.43127	153.265	139.321	-18.3383	153.881	152.858	-45.1808	173.835	112.342	6.12264	178.274	133.587	-13.557	183.341	152.203	-34.1297	191.727	89.7905	3.33732	205.631	107.32	-11.8995	220.543	121.647	-21.8896	171.612	80.901	38.3146	168.424	54.6102	58.5945	137.888	74.6757	55.2107	
194	1.61667	106.704	58.4493	34.5181	97.3151	59.9514	-0.258007	92.3782	70.0073	-24.9665	94.8695	78.2134	-44.406	122.547	117.027	-4.1183	113.797	111.16	-31.1476	116.029	91.2919	-51.1838	154.341	127.45	1.4036	156.53	140.891	-20.8011	155.101	154.632	-44.8934	173.887	114.665	4.51951	181.337	131.357	-12.7731	186.332	148.607	-31.9356	189.006	96.3952	2.33928	202.955	104.06	-10.4395	214.445	122.229	-19.8551	168.824	80.8555	37.1062	167.659	57.5971	58.3562	138.082	79.0026	54.7479	
195	1.625	109.911	62.4227	33.9218	100.355	62.811	0.0448973	94.3939	69.4381	-22.2871	96.8698	79.9637	-43.9167	121.723	117.495	-4.33502	111.697	112.514	-30.9734	107.851	89.3382	-52.0672	151.407	128.037	1.4634	153.907	142.023	-21.9602	157.504	152.68	-45.6645	176.048	114.644	1.51622	181.692	130.557	-14.2204	185.639	149.384	-34.3919	190.737	94.4819	0.824774	203.624	102.951	-12.871	215.794	124.329	-22.923	166.36	78.7152	37.8721	167.772	57.0373	55.6803	140.469	77.5951	53.7826	
196	1.63333	109.781	63.1741	35.4518	99.9414	64.8504	1.32121	94.3877	71.7286	-21.4647	90.7429	80.4471	-43.2815	121.89	120.403	-4.50544	112.648	113.907	-30.2964	106.92	92.189	-50.2711	155.507	127.569	-2.04736	157.65	141.647	-24.7241	157.778	154.751	-52.042	174.731	114.115	0.839831	184.983	129.033	-18.3005	189.264	145.502	-38.4291	187.769	92.0913	-2.01208	204.811	103.321	-19.0027	220.068	114.065	-24.8179	174.148	80.146	34.9763	169.557	53.9459	55.5324	143.339	79.4694	52.0739	
197	1.64167	110.811	65.6662	37.7853	97.5701	69.3921	2.23624	90.5536	77.4837	-20.641	90.8983	82.3244	-39.723	126.135	121.045	-2.5678	113.652	114.818	-32.0204	110.288	94.277	-48.1285	157.529	124.184	-0.404732	159.782	138.188	-23.8338	161.513	151.591	-55.8378	175.925	111.737	-2.53987	186.963	126.212	-24.198	188.515	141.996	-41.3404	191.09	84.196	-4.85412	203.79	98.409	-23.2229	216.505	110.741	-33.1274	172.805	78.2715	31.4881	166.896	54.3052	55.3992	143.989	83.0983	53.936	
198	1.65	113.258	69.8991	38.0652	99.5134	69.3686	7.96989	90.1788	79.6341	-18.177	85.5369	87.4323	-41.8089	129.157	123.104	-1.04975	116.542	116.35	-31.9693	103.666	92.7316	-47.6875	165.127	121.792	-6.78996	161.342	138.914	-29.8947	162.512	149.735	-56.7663	180.065	106.445	-7.12266	187.875	124.275	-28.4872	188.771	137.212	-46.394	191.074	83.171	-9.62771	204.026	92.6851	-28.4866	217.721	102.461	-37.8625	174.01	74.6021	30.3999	169.899	58.3768	51.3843	149.58	80.9708	51.186	
199	1.65833	114.68	75.9577	35.4836	95.7319	76.2322	4.24134	90.5044	83.9387	-19.7537	86.8894	88.8	-40.1192	132.6	122.954	-8.1694	114.789	119.818	-29.3102	105.3	95.7021	-45.1734	166.453	122.478	-10.1853	164.076	135.227	-31.4594	165.186	144.952	-62.7361	181.614	104.589	-11.1004	186.721	121.66	-31.624	192.081	133.903	-55.7896	189.31	77.4773	-12.8311	202.604	88.906	-32.3858	216.269	98.5548	-44.2501	177.639	74.4921	24.9404	170.419	53.9907	49.9512	149.669	85.7115	51.8134	
200	1.66667	114.609	77.1961	37.5743	96.9074	75.6022	9.44129	87.925	85.8941	-18.0708	83.9416	90.9702	-38.7387	133.319	124.344	-5.91019	115.544	118.052	-31.9225	102.995	94.5048	-43.1506	168.287	120.454	-14.3582	167.736	132.117	-36.5385	166.254	142.3	-64.5445	183.484	102.479	-14.7895	189.757	115.655	-38.3477	193.206	129.165	-63.0544	189.579	74.2626	-16.391	199.666	85.4819	-36.4967	216.164	92.1369	-48.7588	175.019	76.3602	26.7219	171.92	51.3628	49.0229	154.01	85.2971	48.288	
201	1.675	113.15	80.1135	40.4643	95.0612	81.3093	7.38102	86.7113	87.5227	-13.6446	83.8275	93.0931	-38.2602	134.595	125.176	-6.57455	116.295	117.949	-33.2182	101.204	95.056	-41.7399	169.626	118.422	-15.8969	166.48	134.755	-38.0146	165.636	143.899	-69.0398	183.126	98.6344	-16.5935	190.917	110.52	-39.588	191.349	127.087	-62.7066	186.476	73.2738	-18.4675	197.416	78.6491	-36.7026	213.799	86.5533	-53.1454	177.683	72.3185	22.1773	170.988	56.72	47.3202	151.191	86.1027	48.8161	
